<svg xmlns="http://www.w3.org/2000/svg" fill="none" viewBox="0 0 51 52" height="52" width="51">
<path fill="#F54617" d="M33.1623 33.4027C32.2397 33.4027 31.4775 33.4226 30.7154 33.4027C28.8501 33.323 27.5865 32.0477 27.6066 30.3142C27.6267 28.5807 28.9304 27.3254 30.7756 27.3054C31.5377 27.2855 32.2999 27.3054 33.1021 27.3054C33.1021 26.1298 33.1021 25.0937 33.1021 23.9778C29.4117 23.9778 25.7413 23.9778 21.9707 23.9778C21.9506 24.3166 21.9306 24.6752 21.9306 25.014C21.9306 27.3652 21.9306 29.7364 21.9306 32.0876C21.9306 33.582 21.369 34.12 19.8648 34.12C18.4207 34.12 16.9967 34.12 15.5526 34.12C14.1887 34.1001 13.6071 33.5422 13.6071 32.1673C13.5871 29.8161 13.6071 27.4449 13.6071 25.0937C13.6071 24.735 13.6071 24.3764 13.6071 23.9579C9.85652 23.9579 6.18616 23.9579 2.37541 23.9579C2.37541 24.2966 2.37541 24.6155 2.37541 24.9343C2.37541 32.9444 2.39547 40.9346 2.35536 48.9447C2.35536 49.9211 2.67625 50.22 3.61891 50.1602C4.8223 50.1004 6.0257 50.1004 7.2291 50.1801C7.57006 50.2001 7.87091 50.6384 8.21188 50.8975C7.89097 51.1366 7.57006 51.5949 7.2291 51.6148C5.86525 51.6945 4.48134 51.6546 3.11749 51.6546C1.59319 51.6347 0.911267 50.9772 0.911267 49.4628C0.911267 44.1825 0.911267 38.9022 0.911267 33.6219C0.911267 30.3341 0.891205 27.0464 0.931318 23.7587C0.931318 23.2207 1.17201 22.583 1.49291 22.1447C2.91693 20.2517 4.42117 18.4385 5.84519 16.5655C6.40677 15.8482 7.06866 15.5094 7.97121 15.5293C14.5297 15.5493 21.0682 15.5493 27.6267 15.5293C28.4691 15.5293 29.0908 15.7884 29.6123 16.4658C31.1366 18.4385 32.721 20.3713 34.2253 22.3639C34.486 22.7026 34.6064 23.2007 34.6264 23.6391C34.6866 24.8147 34.6465 26.0103 34.6465 27.166C39.0389 28.0427 43.3711 25.0937 44.033 20.8894C44.6547 16.8644 41.907 12.66 38.2968 12.2217C38.4171 12.5803 38.5375 12.8991 38.6177 13.2379C38.8584 14.4932 38.3168 15.7485 37.2338 16.426C36.1307 17.1234 34.6264 17.1234 33.6838 16.2068C31.5177 14.1345 29.4117 12.0025 27.3258 9.85052C26.664 9.17304 26.7241 8.21661 27.4261 7.51921C29.4318 5.48679 31.4575 3.45437 33.5233 1.4618C34.6465 0.385808 36.2711 0.365883 37.4745 1.28246C38.6177 2.1592 38.9988 3.69347 38.377 5.04842C38.2767 5.24768 38.1564 5.44694 38.016 5.70597C38.9586 5.94508 39.8612 6.12441 40.7236 6.40337C43.1705 7.16055 45.2163 8.55535 46.9211 10.4682C47.3022 10.9066 47.6231 11.3649 47.0415 11.8232C46.4999 12.2615 46.1389 11.8232 45.7779 11.4446C43.2909 8.71475 40.2222 7.2801 36.5117 7.18047C36.1708 7.18047 35.5892 6.94136 35.549 6.72218C35.4688 6.40337 35.7095 5.94508 35.9301 5.62627C36.1708 5.26761 36.5519 5.0285 36.8126 4.68976C37.3541 3.99236 37.314 3.25511 36.7123 2.61749C36.1708 2.03964 35.2081 1.94001 34.6264 2.51786C32.5205 4.55028 30.4547 6.62255 28.2284 8.83431C29.7126 10.249 31.1165 11.604 32.5205 12.9789C33.1623 13.5965 33.784 14.274 34.4259 14.8718C35.1479 15.5493 36.0304 15.5493 36.6722 14.9515C37.3341 14.3139 37.3341 13.3973 36.6321 12.6401C36.4115 12.401 36.1106 12.2017 35.9301 11.9228C35.7295 11.5841 35.4086 11.1258 35.5089 10.8269C35.6092 10.5678 36.1909 10.3686 36.5519 10.3686C40.8039 10.3287 44.6547 13.5368 45.457 17.7012C46.5802 23.5395 42.2881 28.7202 36.2711 28.76C34.5261 28.7799 32.8013 28.76 31.0564 28.76C29.8128 28.76 29.0707 29.3976 29.0908 30.3939C29.1309 31.3503 29.8329 31.9481 31.0564 31.9083C33.7841 31.8086 36.592 32.0477 39.2394 31.4898C46.54 29.9555 50.6115 22.2244 48.0242 15.2504C47.944 15.0312 47.7635 14.812 47.7836 14.6128C47.8237 14.274 47.9841 13.9353 48.0844 13.5965C48.4454 13.736 49.0271 13.8157 49.1073 14.0548C49.5485 15.4297 50.0901 16.8444 50.2104 18.2592C50.8723 26.7077 44.6547 33.3429 36.1307 33.4027C35.6694 33.4027 35.2081 33.4027 34.6264 33.4027C34.6264 33.8809 34.6264 34.2196 34.6264 34.5783C34.6264 39.4601 34.6264 44.3419 34.6264 49.2237C34.6264 51.0569 34.0047 51.6546 32.1595 51.6546C25.3001 51.6546 18.4608 51.6546 11.6014 51.6546C11.3006 51.6546 10.9596 51.7343 10.719 51.5949C10.4783 51.4753 10.1774 51.1366 10.1774 50.8975C10.1774 50.6584 10.4783 50.3196 10.719 50.22C11.0399 50.1004 11.441 50.1403 11.802 50.1403C18.4809 50.1403 25.1798 50.1204 31.8586 50.1602C32.8615 50.1602 33.1824 49.9012 33.1623 48.885C33.1021 44.1028 33.1422 39.3206 33.1422 34.5385C33.1623 34.2196 33.1623 33.9008 33.1623 33.4027ZM32.3199 22.3439C30.9159 20.5705 29.6724 18.9566 28.3888 17.3625C28.2685 17.2031 28.0078 17.0238 27.8272 17.0238C25.5408 17.0038 23.2543 17.0038 20.8475 17.0038C21.1684 18.8569 21.4893 20.5905 21.7902 22.3439C25.3001 22.3439 28.6897 22.3439 32.3199 22.3439ZM3.21778 22.3041C6.80791 22.3041 10.2175 22.3041 13.7274 22.3041C14.0283 20.5506 14.3291 18.8171 14.65 17.0038C12.2432 17.0038 10.017 17.0038 7.79069 17.0238C7.59013 17.0238 7.32939 17.1433 7.18899 17.3027C5.88532 18.9167 4.60168 20.5506 3.21778 22.3041ZM20.3461 23.9778C18.5611 23.9778 16.8763 23.9778 15.2116 23.9778C15.2116 26.887 15.2116 29.7164 15.2116 32.5459C16.9566 32.5459 18.6413 32.5459 20.3461 32.5459C20.3461 29.6567 20.3461 26.8471 20.3461 23.9778ZM20.2258 22.324C19.9049 20.5108 19.604 18.7972 19.2831 17.0437C18.2201 17.0437 17.2373 17.0437 16.1743 17.0437C15.8735 18.7972 15.5726 20.5307 15.2517 22.324C16.9766 22.324 18.521 22.324 20.2258 22.324Z"></path>
</svg>
