<svg xmlns="http://www.w3.org/2000/svg" fill="none" viewBox="0 0 52 52" height="52" width="52">
<path fill="#F54617" d="M27.3039 51.6305C25.7194 51.2519 24.0748 51.0726 22.5906 50.4549C12.6225 46.3302 5.50237 39.2965 1.29048 29.3934C-0.975915 24.0533 0.668732 18.1154 5.28175 14.5487C7.08685 13.1539 9.65408 13.4728 10.9377 15.4055C12.3617 17.5575 13.6855 19.8091 14.949 22.0607C15.8716 23.6946 15.4705 25.5876 14.1067 27.0023C12.462 28.7159 12.462 28.7159 13.6654 30.7882C15.2499 33.5379 17.3959 35.7895 20.0635 37.543C20.2841 37.6825 20.605 37.7821 20.7053 38.0013C20.8657 38.3002 21.0663 38.8581 20.9259 38.9976C20.6852 39.2367 20.2039 39.2965 19.8228 39.3164C19.6222 39.3363 19.4217 39.0972 19.2211 38.9777C15.7513 36.7261 13.1439 33.7173 11.3589 30.0111C10.677 28.5764 10.7973 27.9787 11.9606 26.823C12.2815 26.4842 12.6425 26.1854 12.9434 25.8267C13.8259 24.8703 14.0064 23.7345 13.3645 22.6187C12.1612 20.5464 10.9377 18.494 9.67414 16.4616C8.85182 15.1664 7.2874 14.9871 6.12412 15.9635C2.05263 19.3708 0.849241 24.3123 2.97524 29.1742C7.00662 38.36 13.6855 44.9155 22.9717 48.8608C27.685 50.8534 32.9198 49.4785 36.0486 45.4934C36.9511 44.3576 36.7706 42.8831 35.5271 42.106C33.4412 40.8108 31.2952 39.5555 29.1491 38.34C28.0861 37.7423 27.003 37.9216 26.1005 38.7385C25.579 39.2168 25.1779 39.8345 24.5762 40.1732C24.0146 40.492 23.2926 40.6514 22.6508 40.6713C22.4101 40.6713 22.1494 40.1134 21.9087 39.8145C22.2095 39.5754 22.4903 39.2965 22.8112 39.1171C23.1321 38.9378 23.5333 38.878 23.8341 38.6588C24.2754 38.3201 24.6364 37.8618 25.0576 37.4832C26.4415 36.2678 28.2867 35.9689 29.8912 36.8655C32.0974 38.1009 34.2836 39.3762 36.4297 40.7311C38.3751 41.9665 38.8766 44.5568 37.4526 46.3103C34.8853 49.5183 31.576 51.3914 27.3039 51.6305Z"></path>
<path fill="#F54617" d="M23.0535 27.9186C24.5778 27.3806 25.9016 26.9622 27.1852 26.4641C27.8671 26.205 28.4087 26.2648 29.0304 26.6832C37.0932 32.0034 47.7031 27.6795 49.7288 18.2746C51.2531 11.2209 46.4395 3.94803 39.2994 2.55323C31.9787 1.11858 24.7784 5.80112 23.3744 12.9345C22.9332 15.226 23.0134 17.4975 23.7555 19.7093C23.9561 20.2871 24.1967 20.9646 23.3945 21.2236C22.532 21.5026 22.3516 20.7653 22.151 20.1675C19.0222 10.384 26.6437 0.341475 36.9728 0.680211C45.5571 0.959171 52.0955 8.05272 51.6141 16.6008C51.1528 24.87 43.8121 31.2263 35.3683 30.6086C33.0016 30.4293 30.7753 29.7717 28.7697 28.4766C28.1279 28.0581 27.6064 28.0382 26.9245 28.3172C25.7812 28.7754 24.5979 29.1341 23.4346 29.5725C22.7727 29.8116 22.1309 29.8913 21.5894 29.3334C21.0479 28.7754 21.1482 28.1578 21.449 27.5002C22.1309 26.0257 22.7727 24.5313 23.4146 23.0368C23.6552 22.459 23.9962 21.9808 24.6982 22.3195C25.34 22.6184 25.1795 23.1564 24.9389 23.6944C24.3372 24.9896 23.7555 26.3445 23.0535 27.9186Z"></path>
<path fill="#F54617" d="M36.5329 9.36719C37.1747 9.52659 37.8366 9.62622 38.4383 9.88526C39.9425 10.5428 40.5643 12.0771 39.9024 13.6114C39.5815 14.3088 39.0801 14.9862 38.4984 15.5043C37.6962 16.2416 37.0744 16.9589 37.1547 18.1146C37.1948 18.6924 36.7736 19.0112 36.2521 18.8518C35.9312 18.7522 35.49 18.3736 35.4699 18.0747C35.3696 16.939 35.6705 15.9028 36.553 15.1257C36.8739 14.8468 37.2148 14.5877 37.5357 14.2689C38.358 13.452 38.4784 12.4158 37.8566 11.7981C37.2349 11.1605 35.8309 11.1007 35.0888 11.7184C34.9685 11.818 34.8682 12.0173 34.7278 12.0572C34.3467 12.1568 33.745 12.376 33.6247 12.2166C33.384 11.9376 33.2436 11.3398 33.384 11.0409C34.0058 9.74578 35.2091 9.48674 36.5329 9.36719Z"></path>
<path fill="#F54617" d="M36.308 20.1875C37.0301 20.2672 37.4513 20.6657 37.4312 21.4229C37.4111 22.1402 36.9699 22.5587 36.288 22.5587C35.5258 22.5786 35.1448 22.0605 35.1648 21.3233C35.2049 20.6458 35.5659 20.2274 36.308 20.1875Z"></path>
</svg>
