<svg xmlns="http://www.w3.org/2000/svg" fill="none" viewBox="0 0 53 48" height="48" width="53">
<path fill="#F54617" d="M40.1717 29.2438C40.0514 30.1006 39.9711 30.818 39.8508 31.5353C39.7304 32.2128 39.57 32.8902 39.3895 33.6873C39.7906 33.7072 40.1316 33.7271 40.4926 33.7271C43.3005 33.7271 46.1084 33.7271 48.9164 33.7271C50.8418 33.7271 52.1054 34.8828 52.0853 36.5566C52.0653 38.1706 50.7816 39.3063 48.9364 39.3063C45.1859 39.3063 41.4553 39.3262 37.7047 39.2864C36.9225 39.2864 36.4211 39.5454 35.9397 40.1432C30.7852 46.3002 24.1665 48.8507 16.3043 47.1371C8.36192 45.4235 3.26754 40.3624 1.32205 32.4917C-0.262424 26.0757 1.36216 20.2773 5.63422 15.2161C5.85484 14.9571 6.07546 14.718 6.35625 14.4191C5.95512 13.921 5.59411 13.4029 5.17292 12.9446C5.01247 12.7852 4.67151 12.6856 4.41077 12.7055C3.32771 12.7653 2.10426 11.8886 1.64296 10.6332C1.28194 9.65687 1.68307 8.91962 2.50539 8.30193C3.38788 7.64438 4.2102 6.90713 5.09269 6.24958C6.07546 5.4924 6.99807 5.59203 7.82039 6.52854C8.56249 7.36542 9.30457 8.2023 8.66276 9.45762C8.60259 9.57717 8.74299 9.83621 8.84328 9.97569C9.20429 10.4539 9.58537 10.9122 9.84611 11.2111C12.5939 10.2148 15.2213 9.27829 18.0091 8.26207C18.0091 7.98311 18.0693 7.44512 17.9891 6.94698C17.949 6.68794 17.7484 6.32928 17.5077 6.22965C16.1238 5.63188 16.0837 3.95812 16.4046 2.12496C16.5851 1.08882 17.4476 0.650457 18.9117 0.650457C20.075 0.650457 21.2583 0.630532 22.4216 0.650457C23.8657 0.690309 24.6078 1.46741 24.6278 2.90206C24.6278 3.4002 24.708 3.91827 24.6078 4.39649C24.5075 4.89463 24.3069 5.45255 23.986 5.79129C22.923 6.8872 22.8829 6.86728 23.0434 8.54103C23.6852 8.68051 24.3671 8.81999 25.029 8.95947C25.5905 9.07903 26.2725 9.17866 26.112 9.95576C25.9516 10.7329 25.3298 10.5535 24.7482 10.4141C15.0007 8.22222 5.51388 13.8413 2.90652 23.3658C-0.162142 34.5241 8.28169 45.8021 19.9346 46.0412C26.112 46.1807 31.0861 43.7697 34.9169 38.9875C35.6389 38.0908 36.4612 37.7123 37.5844 37.7322C41.2347 37.7521 44.8649 37.7521 48.5152 37.7322C48.8562 37.7322 49.1972 37.7322 49.5181 37.6923C50.2 37.5728 50.5811 37.1543 50.5811 36.4569C50.5811 35.7795 50.2201 35.3212 49.5181 35.2215C49.0167 35.1618 48.5152 35.1618 48.0138 35.1618C45.2661 35.1618 42.5384 35.1618 39.7906 35.1618C38.146 35.1618 37.6446 34.4644 38.0056 32.8902C38.2864 31.6947 38.4669 30.4792 38.6474 29.2638C38.8078 28.1479 39.2491 27.6896 40.4124 27.6896C42.057 27.6697 43.6816 27.6896 45.3262 27.6896C45.9279 27.6896 46.67 27.7693 46.6901 26.9125C46.7302 26.0358 45.9881 26.1155 45.3864 26.0956C44.163 26.0557 43.2404 25.4181 42.9395 24.4019C42.6587 23.4255 43.0398 22.2898 43.9423 21.8115C44.4237 21.5525 45.0053 21.433 45.5669 21.413C46.8305 21.3533 48.1141 21.3931 49.3777 21.3931C49.9994 21.3931 50.561 21.2536 50.5811 20.4965C50.6011 19.7194 50.0596 19.5201 49.3576 19.5201C47.8935 19.54 46.4093 19.5201 44.9452 19.5201C44.4036 19.5201 43.8621 19.4802 43.8421 18.8028C43.822 18.0655 44.4036 18.0057 44.9652 18.0057C46.4695 18.0057 47.9737 17.9858 49.478 18.0057C51.1025 18.0456 52.1655 19.0618 52.1254 20.4965C52.0853 21.8713 51.0023 22.8477 49.4579 22.8676C48.1542 22.8875 46.8505 22.8875 45.5469 22.8676C44.9452 22.8676 44.4237 23.0071 44.4036 23.6846C44.3836 24.362 44.9051 24.5414 45.4867 24.5613C45.7474 24.5613 46.0282 24.5812 46.289 24.6211C47.4522 24.8004 48.2946 25.7768 48.2746 26.8926C48.2545 28.0284 47.3921 29.0247 46.2087 29.0844C44.7045 29.1641 43.2002 29.1243 41.696 29.1442C41.1745 29.2438 40.7132 29.2438 40.1717 29.2438ZM20.436 2.22459C19.7942 2.22459 19.1724 2.24451 18.5306 2.22459C17.9891 2.20466 17.7284 2.44377 17.7484 3.00169C17.7685 3.36035 17.7685 3.73894 17.7484 4.0976C17.7083 4.69537 17.9891 4.91456 18.5707 4.91456C19.7942 4.89463 21.0377 4.93448 22.2612 4.89463C22.5219 4.89463 22.9631 4.7153 22.9832 4.57582C23.0434 3.89835 23.1236 3.18102 22.923 2.5434C22.8628 2.34414 22.0606 2.30429 21.5993 2.24451C21.2383 2.18474 20.8371 2.22459 20.436 2.22459ZM6.29608 7.20601C5.1328 8.14252 4.02969 9.01925 2.84635 9.95576C3.26754 10.4539 3.62856 10.8723 4.02969 11.3306C5.21303 10.3742 6.31614 9.49747 7.45936 8.58089C7.03818 8.08274 6.69722 7.68423 6.29608 7.20601ZM19.5134 8.44141C20.1753 8.44141 20.7368 8.44141 21.3185 8.44141C21.3185 7.76393 21.3185 7.12631 21.3185 6.48869C20.6967 6.48869 20.1351 6.48869 19.5134 6.48869C19.5134 7.12631 19.5134 7.74401 19.5134 8.44141ZM7.43931 13.383C7.88056 13.0243 8.30175 12.6856 8.74299 12.3269C8.24158 11.7491 7.78028 11.2111 7.31898 10.6332C6.85768 11.0317 6.47659 11.3306 6.0554 11.6893C6.53676 12.2871 6.97801 12.8251 7.43931 13.383Z"></path>
<path fill="#F54617" d="M4.45312 28.0481C4.73392 19.8187 11.2323 12.8846 19.275 12.4462C27.8191 11.968 34.9993 17.8262 36.0623 26.1153C36.9849 33.2088 32.9335 40.0035 26.2145 42.6735C19.5357 45.3236 11.854 43.092 7.64213 37.2737C7.44156 37.0146 7.18083 36.7357 7.12066 36.4368C7.06049 36.1379 7.12066 35.6397 7.32123 35.5202C7.5218 35.3807 7.9831 35.5003 8.28394 35.6397C8.50457 35.7394 8.60484 36.0383 8.7653 36.2574C12.556 41.5378 19.3351 43.6299 25.3922 41.3783C31.5697 39.0869 35.2801 33.0494 34.5982 26.3942C33.9564 20.277 28.9623 15.1163 22.6846 14.0801C12.3153 12.3865 3.71103 22.2497 6.79975 32.2922C6.85992 32.4915 7.00031 32.6907 6.9602 32.8501C6.85992 33.2088 6.67942 33.5675 6.51897 33.9062C6.19806 33.7069 5.63647 33.5475 5.5763 33.2686C5.15511 31.535 4.8342 29.7816 4.45312 28.0481Z"></path>
<path fill="#F54617" d="M34.6338 14.3389C35.5163 15.5145 36.2985 16.6104 37.161 17.6665C37.3615 17.9056 37.7426 18.065 38.0635 18.0849C39.0664 18.1447 40.0692 18.0451 41.072 18.1447C41.413 18.1845 41.7138 18.6229 42.0347 18.8819C41.6938 19.121 41.3729 19.5594 41.0319 19.5793C39.7683 19.659 38.4847 19.659 37.2211 19.5793C36.8601 19.5594 36.3788 19.2804 36.1983 18.9816C34.2528 15.8134 31.6254 13.4024 28.2759 11.7286C27.9951 11.5891 27.8948 11.0312 27.7344 10.6526C28.1355 10.5729 28.5968 10.3338 28.9177 10.4534C29.5996 10.6725 30.2214 11.091 30.9234 11.4496C31.3044 10.9714 31.7256 10.5331 32.0465 10.0548C32.1869 9.85559 32.207 9.51685 32.1468 9.25782C31.866 8.18183 32.4276 6.90658 33.5708 6.12948C34.333 5.61141 35.1152 5.73097 36.118 6.528C36.9002 7.14569 37.6824 7.76339 38.4446 8.40101C39.6079 9.35745 39.7082 10.2143 38.8056 11.3899C38.1638 12.2267 37.522 13.0437 36.2584 12.685C36.118 12.6452 35.8573 12.8644 35.7169 13.0238C35.3358 13.4422 34.9949 13.8806 34.6338 14.3389ZM34.5336 7.16562C34.1324 7.70361 33.8115 8.12205 33.4304 8.62019C34.6138 9.57663 35.7169 10.4534 36.8601 11.3699C37.2613 10.8319 37.5822 10.4334 37.9632 9.93529C36.8401 9.01871 35.757 8.1619 34.5336 7.16562ZM33.4706 13.3625C33.9519 12.7647 34.3731 12.2666 34.8545 11.6888C34.3932 11.3301 33.972 11.0113 33.5307 10.6526C33.0494 11.2504 32.6482 11.7685 32.1869 12.3264C32.5881 12.6651 32.9691 12.964 33.4706 13.3625Z"></path>
<path fill="#F54617" d="M17.6877 31.7946C16.5645 32.9304 15.4012 34.106 14.238 35.2816C13.7767 35.7399 13.2351 35.9989 12.8541 35.3015C12.7337 35.0624 12.9543 34.4646 13.2151 34.2056C14.3382 33.03 15.5216 31.9142 16.5846 30.8581C16.3439 29.9415 16.0029 29.1644 15.9428 28.3674C15.7623 26.2951 16.9456 24.5217 18.9513 23.8243C19.553 23.6251 19.7134 23.3461 19.6933 22.7683C19.6532 21.2738 19.6733 19.7794 19.6933 18.285C19.6933 17.7669 19.7535 17.209 20.4354 17.209C21.0973 17.209 21.1976 17.7271 21.1976 18.265C21.1976 19.7993 21.1575 21.3137 21.2177 22.848C21.2377 23.1468 21.4784 23.6051 21.7391 23.7048C24.5069 24.8405 25.7103 27.391 24.6072 29.8618C23.5041 32.3326 20.4555 33.3488 18.0287 31.8743C17.9484 31.8544 17.8883 31.8544 17.6877 31.7946ZM23.4439 28.0286C23.4239 26.3748 22.1001 25.0597 20.4354 25.0597C18.7707 25.0597 17.3668 26.4545 17.3868 28.1083C17.4069 29.7223 18.7908 31.0773 20.4154 31.0773C22.1001 31.0972 23.464 29.7223 23.4439 28.0286Z"></path>
<path fill="#F54617" d="M41.2522 43.4108C39.8883 43.4108 38.5245 43.4706 37.1606 43.371C36.7796 43.3511 36.1378 42.9725 36.0776 42.6935C35.9572 41.9961 36.579 41.8965 37.1606 41.8965C39.9285 41.8965 42.6963 41.8965 45.444 41.8965C45.9855 41.8965 46.507 41.9762 46.507 42.6537C46.507 43.3311 45.9855 43.4108 45.444 43.4108C44.0601 43.4108 42.6561 43.4108 41.2522 43.4108Z"></path>
<path fill="#F54617" d="M45.4029 15.7745C44.9015 15.7745 44.3801 15.8741 43.9188 15.7347C43.6179 15.655 43.297 15.2564 43.2368 14.9576C43.1967 14.7583 43.658 14.3199 43.9188 14.3C44.9416 14.2203 45.9846 14.2203 47.0075 14.3C47.2682 14.3199 47.7094 14.7782 47.6693 14.9576C47.6292 15.2564 47.2883 15.655 46.9874 15.7347C46.486 15.8542 45.9244 15.7745 45.4029 15.7745Z"></path>
<path fill="#F54617" d="M46.8961 31.994C46.3946 31.994 45.8732 32.0737 45.4119 31.9542C45.1311 31.8944 44.7701 31.5158 44.75 31.2767C44.75 31.0376 45.1511 30.5992 45.3918 30.5793C46.4147 30.4996 47.4376 30.4996 48.4605 30.5793C48.6811 30.5992 49.002 31.0376 49.0421 31.3166C49.0622 31.5158 48.7012 31.8944 48.4605 31.9542C47.9591 32.0538 47.4175 31.9741 46.8961 31.994C46.8961 31.9741 46.8961 31.9741 46.8961 31.994Z"></path>
<path fill="#F54617" d="M50.4025 43.4307C49.7406 43.3311 48.7578 43.6898 48.7578 42.6337C48.7779 41.6574 49.7205 41.9164 50.3423 41.9363C50.9841 41.9562 51.9869 41.6175 52.007 42.6536C52.0471 43.7097 51.0242 43.3112 50.4025 43.4307Z"></path>
</svg>
