<svg xmlns="http://www.w3.org/2000/svg" fill="none" viewBox="0 0 45 52" height="52" width="45">
<path fill="#F54617" d="M32.9864 37.249C33.4276 38.0062 33.8287 38.5441 34.0493 39.1618C34.1697 39.4807 33.9691 39.919 33.929 40.2976C33.5479 40.1581 33.0866 40.1183 32.7858 39.8792C32.4849 39.6201 32.3245 39.1618 32.0236 38.6438C30.3188 41.1544 28.7143 43.8045 24.9437 41.7123C24.9437 41.812 24.9637 41.9116 24.9637 42.0112C26.3476 44.4023 27.7516 46.7934 29.2157 49.3239C29.7773 48.2081 30.2988 47.2118 30.7601 46.1956C31.101 45.4185 31.5623 45.0798 32.4649 45.1993C33.568 45.3587 34.7112 45.3388 35.9748 45.4185C35.5135 44.6016 35.1124 43.8842 34.6912 43.1669C34.4104 42.6887 34.2499 42.1507 34.8717 41.9315C35.1525 41.8319 35.7542 42.1308 35.9547 42.4097C36.6366 43.4259 37.2384 44.5019 37.82 45.5779C37.9804 45.8967 38.1409 46.4148 37.9805 46.6539C37.82 46.893 37.2985 47.0126 36.9375 46.9926C35.6739 46.9528 34.4104 46.8731 33.1468 46.7336C32.4849 46.6539 32.1239 46.7934 31.8431 47.4509C31.3417 48.6066 30.7601 49.7225 30.1584 50.8383C29.9779 51.177 29.5968 51.5556 29.2759 51.6154C29.0352 51.6553 28.614 51.2169 28.4335 50.918C26.6083 47.8295 24.8233 44.7211 23.0182 41.6127C22.3563 40.4769 21.875 40.4769 21.2131 41.5928C19.4281 44.6613 17.6631 47.7498 15.838 50.7984C15.6173 51.1571 15.2162 51.5556 14.8552 51.5955C14.6145 51.6353 14.2134 51.1173 14.0128 50.7785C13.3911 49.6428 12.8896 48.4472 12.2478 47.3314C12.0874 47.0524 11.606 46.7735 11.2851 46.7934C9.9413 46.8133 8.61758 46.9727 7.29385 47.0325C6.93283 47.0524 6.39129 46.9528 6.23084 46.7137C6.07038 46.4945 6.21079 45.9565 6.3913 45.6377C6.97294 44.5617 7.61474 43.5056 8.2365 42.4496C8.51729 41.9714 8.89838 41.5529 9.39979 41.9714C9.62041 42.1706 9.66052 42.8082 9.52013 43.147C9.19922 43.9042 8.73791 44.5816 8.25655 45.4384C9.58029 45.3587 10.7636 45.3388 11.9269 45.2193C12.6289 45.1395 13.0501 45.3787 13.3509 46.0163C13.8523 47.0923 14.4139 48.1483 14.9956 49.3439C16.5199 46.7137 17.984 44.1831 19.4481 41.6725C16.0786 43.2466 13.5916 42.4297 12.1074 38.863C11.7665 39.4009 11.6261 39.8194 11.3252 40.0386C11.0645 40.2378 10.6433 40.2378 10.3023 40.3375C10.2221 39.9987 10.0416 39.6201 10.1018 39.3013C10.182 38.9227 10.4427 38.584 10.6834 38.2652C11.245 37.5479 10.9241 37.0696 10.2422 36.7907C9.2995 36.3922 8.29667 36.0933 7.33395 35.7346C6.7122 35.5154 6.05032 35.3361 5.46868 35.0173C4.32545 34.3996 3.56331 33.3635 3.72376 32.1081C4.14495 28.6809 3.30258 25.7718 0.976016 23.1615C-0.0468714 22.0257 0.133623 20.5512 1.03617 19.276C1.75821 18.2399 2.6006 17.2834 3.28253 16.2274C3.62349 15.7093 3.86416 15.0318 3.92433 14.4141C4.04467 13.1588 4.00455 11.9035 4.04466 10.6282C4.10483 8.99433 4.92717 7.87849 6.49158 7.36042C7.65487 6.96191 8.87831 6.70287 10.0215 6.24458C10.6634 5.98555 11.2851 5.52726 11.7464 5.00919C12.4885 4.17231 13.0902 3.19595 13.7721 2.27937C14.8953 0.765015 16.2792 0.346575 18.0843 0.944346C19.1874 1.32293 20.2705 1.78123 21.3936 2.06019C22.0756 2.21959 22.8377 2.23952 23.5196 2.08011C24.6227 1.841 25.6657 1.38271 26.7488 1.04397C28.4937 0.486055 29.9979 0.964272 31.0609 2.4587C31.7027 3.35536 32.3445 4.25201 32.9061 5.18852C33.4075 6.00547 34.0895 6.48369 34.992 6.76265C36.055 7.06154 37.0779 7.46005 38.1208 7.81871C39.7655 8.41648 40.7683 9.57218 40.5677 11.2659C40.1666 14.5735 41.0291 17.3432 43.2353 19.8538C44.3384 21.1092 44.3183 22.7431 43.155 23.9785C40.8285 26.4293 39.9259 29.2388 40.2067 32.5664C40.3471 34.1804 39.3443 35.2763 37.7598 35.7944C36.1753 36.2726 34.6511 36.7309 32.9864 37.249ZM5.14778 29.5975C5.14778 30.3945 5.14778 30.9525 5.14778 31.5104C5.12772 32.9849 5.46868 33.4631 6.85259 33.9612C7.9557 34.3398 9.09893 34.6188 10.1419 35.1368C10.9441 35.5354 11.7264 36.1132 12.308 36.7907C13.1303 37.7471 13.732 38.863 14.4741 39.8991C15.1159 40.8157 15.8379 41.0548 16.9009 40.716C18.0843 40.3375 19.2075 39.8194 20.4108 39.5604C21.2933 39.381 22.2561 39.381 23.1386 39.5803C24.342 39.8393 25.4651 40.3972 26.6284 40.7758C27.7516 41.1544 28.4536 40.9352 29.1756 39.9987C29.9378 39.0024 30.6197 37.9065 31.4621 36.97C32.0236 36.3722 32.7657 35.8542 33.5279 35.5354C34.651 35.0571 35.8745 34.7981 37.0578 34.4195C38.2813 34.021 38.7025 33.4432 38.7426 32.148C38.7627 30.9923 38.6624 29.8167 38.8028 28.661C38.9031 27.8042 39.2039 26.9275 39.6451 26.1902C40.287 25.1142 41.1293 24.1578 41.8915 23.1416C42.5333 22.2848 42.5534 21.4479 41.9316 20.5712C41.2296 19.5948 40.4474 18.6782 39.8858 17.6222C39.4446 16.7853 39.1237 15.8089 39.0234 14.8525C38.883 13.6769 39.0434 12.4614 39.0434 11.2659C39.0635 10.2098 38.5821 9.5124 37.5392 9.17366C36.396 8.79507 35.2126 8.49619 34.1496 7.97812C33.2872 7.55968 32.4649 6.94198 31.8231 6.22466C31.0208 5.30807 30.4191 4.21216 29.7171 3.19595C29.1154 2.33915 28.3132 2.02033 27.2702 2.39892C26.1471 2.79744 25.0239 3.29558 23.8606 3.51476C22.9179 3.69409 21.8951 3.67417 20.9524 3.47491C19.7891 3.2358 18.686 2.71773 17.5428 2.33915C16.3594 1.94063 15.6575 2.15981 14.9154 3.13617C11.3052 7.97812 13.0902 6.78258 7.13338 8.65559C5.9701 9.03418 5.50879 9.63195 5.46868 10.8474C5.44862 12.043 5.54892 13.2584 5.38847 14.434C5.28819 15.2909 4.92715 16.1277 4.54608 16.9248C4.24523 17.5425 3.72377 18.0605 3.30258 18.5985C1.31697 21.2088 1.27685 21.2486 3.26245 23.8988C4.60624 25.6921 5.72942 27.4854 5.14778 29.5975Z"></path>
<path fill="#F54617" d="M8.33909 16.1871C9.52243 16.1871 10.5253 16.1871 11.5281 16.1871C13.3934 16.1871 13.3933 16.1871 13.5939 18.1597C15.1383 17.004 16.6225 15.9679 18.0064 14.7923C18.8487 14.075 19.1095 13.0189 19.1095 11.9031C19.1095 10.4286 19.7713 9.59168 21.0149 9.41235C22.2584 9.23302 23.1609 9.89057 23.5019 11.3053C23.7426 12.3414 23.9832 13.3776 24.0234 14.4336C24.0635 15.4897 23.883 16.5458 23.8027 17.7214C25.8485 17.7214 27.9544 17.7014 30.0403 17.7214C31.6649 17.7413 32.8082 19.0763 32.3268 20.5907C32.0259 21.567 31.9056 22.5035 31.8053 23.5197C31.685 24.6754 31.3841 25.8511 31.2036 27.0267C31.0432 28.0429 30.6019 28.9993 30.642 30.1351C30.6821 31.1911 29.4988 32.1077 28.3556 32.1077C24.8457 32.1476 21.3358 32.1276 17.8259 32.0878C17.3846 32.0878 16.9634 31.8088 16.5222 31.6494C15.5996 31.3306 14.6569 31.0317 13.634 30.693C13.5137 31.6295 13.4134 32.3668 13.2931 33.2634C15.9405 35.2759 19.1095 36.332 22.6395 36.1526C30.4415 35.7541 36.4384 29.8163 36.8596 22.0851C37.0802 18.0601 35.6963 14.5333 32.9485 11.5444C32.768 11.3451 32.4872 11.1857 32.4271 10.9466C32.3468 10.6477 32.3067 10.1695 32.4873 9.9902C32.6477 9.81087 33.1491 9.85072 33.45 9.95035C33.7107 10.03 33.8912 10.3289 34.0918 10.5481C38.2836 15.3303 39.5873 20.7899 37.4412 26.7477C35.2751 32.7852 30.8226 36.4914 24.3844 37.4677C15.7199 38.7828 7.35631 32.6059 6.05263 24.1374C4.68879 15.2307 10.6857 6.98142 19.5507 5.54677C23.3816 4.92907 26.9917 5.62647 30.3412 7.55926C30.8025 7.83822 31.3841 8.13711 31.0231 8.77473C30.642 9.47213 30.0805 9.13339 29.579 8.83451C22.0177 4.61026 12.6914 7.37993 8.86056 14.9915C8.68005 15.3502 8.55972 15.6889 8.33909 16.1871ZM13.4936 29.0591C15.038 29.617 16.3818 30.1351 17.7456 30.6133C18.0465 30.7129 18.4075 30.693 18.7284 30.693C21.6767 30.693 24.605 30.693 27.5533 30.693C27.8141 30.693 28.155 30.7727 28.3355 30.6531C28.6564 30.434 29.0977 30.0952 29.0977 29.7963C29.0977 29.5174 28.6364 29.2185 28.3355 28.9595C28.2352 28.8798 28.0146 28.9196 27.8542 28.9395C27.2926 28.9595 26.7912 28.82 26.7912 28.1824C26.8112 27.5248 27.3528 27.465 27.8943 27.4451C28.3355 27.4451 28.7968 27.5049 29.1779 27.3654C29.4788 27.2459 29.8398 26.8075 29.8197 26.5285C29.7997 26.2496 29.3985 25.9108 29.0977 25.7514C28.8169 25.6119 28.3957 25.8112 28.1149 25.6717C27.8141 25.5322 27.5934 25.1935 27.3327 24.9345C27.5934 24.6754 27.814 24.3168 28.135 24.2171C28.5561 24.0976 29.0977 24.2769 29.5189 24.1374C29.8598 24.0378 30.1005 23.6393 30.4014 23.3803C30.1206 23.0814 29.8799 22.643 29.5389 22.5035C29.1378 22.3441 28.5963 22.5434 28.155 22.4039C27.8341 22.3043 27.6135 21.9456 27.3528 21.7065C27.6336 21.4475 27.8943 21.049 28.2352 20.9693C28.8169 20.8497 29.4386 20.9493 30.0403 20.9294C30.7423 20.9095 31.1836 20.4711 30.9028 19.8335C30.7624 19.5147 30.1406 19.2158 29.7194 19.2158C27.5934 19.156 25.4474 19.1759 23.3013 19.1759C21.9174 19.1759 21.7169 18.9368 22.138 17.6616C22.7999 15.6292 22.6595 13.5967 22.0578 11.5843C21.9575 11.2854 21.5564 11.0662 21.2957 10.8072C21.075 11.106 20.694 11.385 20.694 11.6839C20.714 14.2543 19.3702 15.9679 17.3445 17.3229C16.2414 18.0601 15.1583 18.8372 14.0953 19.6542C13.8145 19.8733 13.5538 20.2918 13.5538 20.6305C13.4736 23.5197 13.4936 26.3691 13.4936 29.0591ZM11.9693 17.7014C10.7058 17.7014 9.48231 17.6616 8.25886 17.7214C8.0583 17.7413 7.7374 18.1 7.69729 18.359C6.71452 23.1013 7.77751 27.3654 10.9264 31.0716C11.147 31.3306 11.5481 31.4502 11.9894 31.7092C11.9693 26.9071 11.9693 22.3641 11.9693 17.7014Z"></path>
<path fill="#F54617" d="M10.7388 21.4883C10.2173 21.8669 9.93651 22.2256 9.65571 22.2455C9.41503 22.2455 8.93368 21.827 8.95373 21.6477C8.99385 21.3488 9.31477 20.9105 9.59556 20.8706C9.83624 20.7909 10.1772 21.1496 10.7388 21.4883Z"></path>
</svg>
